HIERARCHY
ROOT hip
{
	OFFSET 0.000000 0.000000 0.000000 
	CHANNELS 6 Xposition Yposition Zposition Xrotation Zrotation Yrotation
	JOINT abdomen
	{
		OFFSET 0.000000 3.402643 0.000000 
		CHANNELS 3 Xrotation Zrotation Yrotation
		JOINT chest
		{
			OFFSET 0.000000 8.438565 -0.680529 
			CHANNELS 3 Xrotation Zrotation Yrotation
			JOINT neck
			{
				OFFSET 0.000000 10.207942 -0.272212 
				CHANNELS 3 Xrotation Zrotation Yrotation
				JOINT head
				{
					OFFSET 0.000000 3.130431 0.000000 
					CHANNELS 3 Xrotation Zrotation Yrotation
					End Site
					{
						OFFSET 0.000000 3.130435 0.000000 
					}
				}
			}
			JOINT lCollar
			{
				OFFSET 3.470700 6.669187 -0.816635 
				CHANNELS 3 Yrotation Zrotation Xrotation
				JOINT lShldr
				{
					OFFSET 3.198488 0.000000 0.000000 
					CHANNELS 3 Zrotation Yrotation Xrotation
					JOINT lForeArm
					{
						OFFSET 10.139888 0.000000 0.000000 
						CHANNELS 3 Yrotation Zrotation Xrotation
						JOINT lHand
						{
							OFFSET 8.370511 0.000000 0.000000 
							CHANNELS 3 Zrotation Yrotation Xrotation
							End Site
							{
								OFFSET 4.083176 0.000000 0.000000 
							}
						}
					}
				}
			}
			JOINT rCollar
			{
				OFFSET -3.470700 6.669187 -0.816635 
				CHANNELS 3 Yrotation Zrotation Xrotation
				JOINT rShldr
				{
					OFFSET -3.198488 0.000000 0.000000 
					CHANNELS 3 Zrotation Yrotation Xrotation
					JOINT rForeArm
					{
						OFFSET -10.139888 0.000000 0.000000 
						CHANNELS 3 Yrotation Zrotation Xrotation
						JOINT rHand
						{
							OFFSET -8.370511 0.000000 0.000000 
							CHANNELS 3 Zrotation Yrotation Xrotation
							End Site
							{
								OFFSET -4.083176 0.000000 0.000000 
							}
						}
					}
				}
			}
		}
	}
	JOINT lThigh
	{
		OFFSET 5.308129 -1.633274 1.361059 
		CHANNELS 3 Xrotation Zrotation Yrotation
		JOINT lShin
		{
			OFFSET -2.041588 -20.007561 0.000000 
			CHANNELS 3 Xrotation Zrotation Yrotation
			JOINT lFoot
			{
				OFFSET 0.000000 -19.190928 -1.224953 
				CHANNELS 3 Xrotation Yrotation Zrotation
				End Site
				{
					OFFSET 0.000000 -2.449906 4.627600 
				}
			}
		}
	}
	JOINT rThigh
	{
		OFFSET -5.308129 -1.633274 1.361059 
		CHANNELS 3 Xrotation Zrotation Yrotation
		JOINT rShin
		{
			OFFSET 2.041588 -20.007561 0.000000 
			CHANNELS 3 Xrotation Zrotation Yrotation
			JOINT rFoot
			{
				OFFSET 0.000000 -19.190928 -1.224953 
				CHANNELS 3 Xrotation Yrotation Zrotation
				End Site
				{
					OFFSET 0.000000 -2.449906 4.627600 
				}
			}
		}
	}
}
MOTION
Frames: 9
Frame Time: 0.016667
-26.421989 48.133717 42.029518 -0.340320 -7.007402 -37.931454 35.671471 -2.754344 4.712375 -10.781126 -9.323897 4.748841 3.548238 7.287240 12.456537 -0.042232 -4.321980 12.908194 -9.697951 -4.070621 -0.009602 -59.549469 -0.941538 1.292875 -136.003006 2.542873 31.851238 18.411615 24.092882 7.740986 22.471449 4.713065 -0.009796 59.905361 5.736542 12.694188 125.016983 -2.472845 30.637533 -13.014638 -9.866741 2.247243 -32.554844 10.232374 9.963535 35.790447 -0.890725 -2.835645 16.583431 -17.990473 -7.245154 0.701569 -13.471072 -9.806265 54.139950 -0.178571 3.622848 4.971192 5.019958 11.811871 
-26.235588 48.258831 41.058315 -0.847765 -6.870074 -37.819580 35.864605 -2.833324 4.429030 -11.009932 -9.170714 4.549824 3.927487 7.524783 12.493159 -0.226330 -4.425821 12.959103 -9.512371 -3.875339 -0.009609 -59.158569 -0.759476 1.252550 -136.353394 2.592529 32.529186 18.013664 24.028309 7.544295 22.354204 4.351755 -0.009747 59.282085 5.654963 12.877943 124.935333 -2.496736 30.991861 -12.745190 -10.563942 2.354725 -32.249321 11.324528 8.754470 33.680149 -0.997957 -2.741922 18.112814 -20.208508 -6.037980 1.433862 -13.315060 -11.196339 52.141884 -0.051640 3.544527 4.530141 5.104431 11.845727 
-26.049143 48.383335 40.087242 -1.340026 -6.740920 -37.698307 36.058022 -2.912258 4.155440 -11.239830 -9.017339 4.349281 4.309179 7.771794 12.530015 -0.410614 -4.529617 13.010056 -9.326793 -3.680058 -0.009617 -58.757557 -0.580409 1.201259 -136.691681 2.634048 33.199318 17.605532 23.963545 7.344748 22.227192 3.980681 -0.009696 58.659828 5.578173 13.064988 124.851021 -2.521886 31.345869 -12.468391 -11.260711 2.461142 -31.979116 12.430029 7.555445 31.600201 -1.100248 -2.596732 19.715240 -22.426737 -4.739460 2.165460 -13.157082 -12.575200 50.151875 0.055668 3.492772 4.076362 5.174037 11.875368 
-25.837585 48.209133 39.179302 -1.881248 -6.706363 -38.080704 36.046303 -3.039395 4.018890 -11.124770 -8.843081 4.259446 4.215280 7.856703 12.561690 -0.404994 -4.652210 13.070794 -9.160740 -3.465242 -0.009623 -58.329693 -0.844307 0.419915 -136.980637 2.653594 33.409653 17.602877 22.803286 7.002664 22.100132 3.306873 -0.009596 57.963074 5.863005 13.686617 125.296310 -2.526235 31.338070 -14.127135 -14.007797 3.513985 -32.284386 13.730219 6.061519 31.834480 -1.090508 -2.615768 18.126383 -22.598436 -5.328281 2.847808 -13.234006 -13.617179 49.216602 0.113904 3.436596 0.950405 5.512562 12.168256 
-25.625998 48.034443 38.271416 -2.422707 -6.671512 -38.461926 36.034523 -3.176301 3.882893 -11.007353 -8.649388 4.158482 4.120116 7.941886 12.583714 -0.409402 -4.774738 13.131573 -8.994689 -3.250427 -0.009630 -57.894180 -1.101831 -0.357016 -137.264252 2.663462 33.619873 17.603661 21.660702 6.671724 21.973074 2.633065 -0.009495 57.267620 6.155942 14.321152 125.744698 -2.526865 31.337353 -15.849238 -16.714863 4.655609 -32.644165 15.028033 4.523421 32.068451 -1.065956 -2.650244 16.537449 -22.732925 -5.931242 3.521968 -13.295253 -14.668569 48.280548 0.172338 3.398998 -2.179172 5.829478 12.478064 
-25.401825 47.630013 37.387482 -2.670614 -6.751964 -39.082306 36.437412 -3.770895 3.826137 -13.241838 -5.607890 4.483476 5.638378 5.418287 12.851949 -0.487166 -4.396407 13.007030 -9.043671 -4.158621 -0.009619 -59.082420 0.014825 -0.309848 -138.138229 2.652639 33.448807 17.606237 22.425051 6.893562 21.855469 -0.166016 0.000000 57.336182 4.176947 15.729642 126.719955 -2.531378 31.478207 -16.301910 -18.376757 5.266868 -33.397057 16.552105 2.898328 33.553463 -1.003068 -2.727324 14.368107 -19.813299 -7.432784 3.736855 -13.186821 -15.242689 47.969357 0.192041 3.363738 -6.978547 6.294453 13.062476 
-25.177549 47.225426 36.503532 -2.925963 -6.829294 -39.702656 36.831699 -4.365566 3.770399 -15.443966 -2.559799 4.682216 7.134617 2.892276 13.044456 -0.560492 -4.036883 12.874015 -9.102417 -5.066815 -0.009605 -60.250683 1.134963 -0.273565 -139.010696 2.634854 33.274609 17.617348 23.196070 7.133145 21.738281 -2.958984 0.000000 57.352947 2.214519 17.137186 127.691605 -2.534580 31.613691 -16.780642 -20.026796 5.885333 -34.195107 18.064138 1.234834 35.048676 -0.919556 -2.787895 12.340929 -16.862892 -8.777911 3.954078 -13.084648 -15.816931 47.676975 0.201728 3.344512 -11.806717 6.686627 13.698920 
-24.904430 46.742676 35.613533 -3.015308 -6.804707 -40.332928 36.393257 -3.927151 3.748830 -14.140268 -4.001536 4.463373 6.293489 4.047720 13.374198 -1.158589 -4.332214 13.407690 -8.506620 -4.510274 -0.009628 -58.900486 -0.826195 -1.901188 -138.784012 2.673249 33.689987 17.591415 22.924923 7.042826 21.044661 -1.634366 -0.009111 55.477055 5.285219 15.982952 126.814568 -2.592788 32.497120 -15.693475 -17.905567 4.946628 -34.955612 19.401470 -0.523757 36.385567 -0.851481 -2.882448 10.765567 -12.777184 -9.909231 3.160102 -12.814503 -15.718265 48.086109 0.182311 3.374743 -16.033772 6.336282 14.160563 
-24.631227 46.260075 34.723713 -3.104534 -6.778621 -40.963062 35.955086 -3.488754 3.717719 -12.830210 -5.424874 4.207585 5.445950 5.210071 13.680959 -1.754084 -4.635507 13.932721 -7.920589 -3.943967 -0.009650 -57.491390 -2.733402 -3.581283 -138.562149 2.703683 34.100307 17.565992 22.653755 6.952604 20.351513 -0.306131 -0.009156 53.514103 8.308603 14.716264 125.940422 -2.666214 33.373512 -14.651458 -15.759993 4.051224 -35.779629 20.721952 -2.337318 37.713245 -0.798989 -2.951127 9.269812 -8.662926 -10.906609 2.380614 -12.553157 -15.624373 48.524136 0.162718 3.415899 -20.302435 5.940989 14.603078 
